# xmcd
#
# Track frame offsets:
#	150
#	16046
#	25612
#	40757
#	61303
#	70783
#	88311
#	103874
#	117507
#	132040
#	147515
#
# Disc length: 2269 seconds
#
# Revision: 1
# Processed by: cddbd v1.5.2PL0 Copyright (c) Steve Scherf et al.
# Submitted via: audiograbber 1.83.01
#
DISCID=9208db0b
DTITLE=Various Artist - The Music of Nashville Original Soundtrack Season 1 Volume 2
DYEAR=2013
DGENRE=Country
TTITLE0=Sam Palladio and Clare Bowen - Fade Into You
TTITLE1=Lennon Stella and Maisy Stella - Ho Hey
TTITLE2=Sam Palladio - Gun for a Month
TTITLE3=Hayden Panettiere - We Are Water
TTITLE4=Clare Bowen - Looking for a Place to Shine
TTITLE5=Connie Britton - Stronger Than Me
TTITLE6=Connie Britton - Bitter Memory
TTITLE7=Jonathan Jackson - Let There Be Lonely
TTITLE8=Hayden Panettiere - Hipnotizing
TTITLE9=Clare Bowen and Sam Palladio - I Will Not Fall (Studio Edition)
TTITLE10=Hayden Panettiere - Nothing in This World Will Ever Break My Heart Aga
TTITLE10=in
EXTD=
EXTT0=
EXTT1=
EXTT2=
EXTT3=
EXTT4=
EXTT5=
EXTT6=
EXTT7=
EXTT8=
EXTT9=
EXTT10=
PLAYORDER=
